<svg viewBox="0 0 75 75" xmlns="http://www.w3.org/2000/svg">
  <path d="M38.16 37.5v10.77h15.05c-.61 3.93-2.45 7.25-5.2 9.47l8.39 6.51c4.89-4.51 7.71-11.15 7.71-19.03 0-1.83-.16-3.59-.47-5.28H38.16z" fill="#4285F4"/>
  <path d="M38.16 62.08c7.04 0 12.95-2.33 17.26-6.32l-8.39-6.51c-2.33 1.57-5.31 2.49-8.87 2.49-6.82 0-12.6-4.61-14.67-10.8l-8.65 6.69c4.27 8.47 13.04 14.17 23.32 14.17z" fill="#34A853"/>
  <path d="M23.49 41.22c-.53-1.57-.83-3.24-.83-4.97s.3-3.4.83-4.97l-8.65-6.69c-1.76 3.51-2.76 7.47-2.76 11.66s1 8.15 2.76 11.66l8.65-6.69z" fill="#FBBC05"/>
  <path d="M38.16 20.42c3.84 0 7.29 1.32 10 3.91l7.5-7.5c-4.53-4.23-10.44-6.83-17.5-6.83-10.28 0-19.05 5.7-23.32 14.17l8.65 6.69c2.07-6.19 7.85-10.8 14.67-10.8z" fill="#EA4335"/>
</svg>
